<svg xmlns="http://www.w3.org/2000/svg" xmlns:xlink="http://www.w3.org/1999/xlink" id="svg2" version="1.1" viewBox="0 0 654.51 789.27"><defs id="defs4"><linearGradient id="linearGradient3713"><stop id="stop3715" offset="0" style="stop-color:#fff"/><stop id="stop3717" offset="1" style="stop-color:#fff;stop-opacity:0"/></linearGradient><linearGradient id="linearGradient3327"><stop id="stop3329" offset="0" style="stop-color:#fff"/><stop id="stop3331" offset="1" style="stop-color:#8b8b8b"/></linearGradient><filter id="filter3701" color-interpolation-filters="sRGB"><feGaussianBlur id="feGaussianBlur3703" stdDeviation="3.444"/></filter><linearGradient id="linearGradient4319" x1="-1058.8" x2="-786.17" y1="-4063.4" y2="-4063.4" gradientTransform="translate(25.502)" gradientUnits="userSpaceOnUse"><stop id="stop3267" offset="0" style="stop-color:#151515"/><stop id="stop3269" offset="1" style="stop-color:#919191"/></linearGradient><linearGradient id="linearGradient4321" x1="-1058.3" x2="-786.67" y1="-4063.4" y2="-4063.4" gradientTransform="translate(25.502)" gradientUnits="userSpaceOnUse" xlink:href="#linearGradient3713"/><linearGradient id="linearGradient4323" x1="-865.98" x2="-858.12" y1="-3928.1" y2="-4261.1" gradientTransform="translate(25.502)" gradientUnits="userSpaceOnUse" xlink:href="#linearGradient3713"/><radialGradient id="radialGradient4325" cx="-337.38" cy="-3470.4" r="132.37" gradientUnits="userSpaceOnUse" xlink:href="#linearGradient3327"/><linearGradient id="linearGradient4327" x1="-652.25" x2="-658.66" y1="-3571.1" y2="-3323.5" gradientUnits="userSpaceOnUse"><stop id="stop2449" offset="0" style="stop-color:#fff"/><stop id="stop2451" offset="1" style="stop-color:#fff;stop-opacity:0"/></linearGradient><radialGradient id="radialGradient4329" cx="-644.86" cy="-3991.8" r="64.099" gradientUnits="userSpaceOnUse" xlink:href="#linearGradient3327"/><linearGradient id="linearGradient4337" x1="-483.29" x2="-485.03" y1="-3258" y2="-3224.1" gradientUnits="userSpaceOnUse" xlink:href="#linearGradient3713"/><linearGradient id="linearGradient4345" x1="249.39" x2="-292.76" y1="-3657.7" y2="-3259.9" gradientUnits="userSpaceOnUse"><stop id="stop3311" offset="0" style="stop-color:#fff"/><stop id="stop3313" offset="1" style="stop-color:#fff;stop-opacity:0"/></linearGradient></defs><g id="layer1" transform="translate(-38.501 -60.966)"><g id="g4347"><g id="g4255" transform="translate(1204,4290.6)"><path id="path2807" d="m-827.55-3925.7c93.24-181.5-58.96-236-205.25-285.6 115.3 2.8 349.14 74.2 230.75 295.8l-25.5-10.2z" style="fill-rule:evenodd;stroke:url(#linearGradient4321);stroke-width:1px;fill:url(#linearGradient4319)"/><path id="path3838" d="m-839.82-3914.4c-145.39 0-265.08 56.6-279.88 129.2v40c14.8-72.6 134.49-129.2 279.88-129.2v-40z" style="fill:gray"/><path id="path3840" d="m-1119.7-3785.2c-11.8 27.6-18.7 60.7-18.7 96.5v40c0-35.8 6.9-68.9 18.7-96.5v-40z" style="fill:gray"/><path id="path3842" d="m-1138.4-3688.7v45.6-45.6z" style="fill:gray"/><path id="path3844" d="m-1138.4-3683.1c2 98.6 55.5 178 119.3 177.3v40c-63.8 0.7-117.3-78.7-119.3-177.3v-40z" style="fill:gray"/><path id="path3846" d="m-1019.1-3505.8c51.44-0.6 94.01-52.9 107.62-124.7v40c-13.61 71.8-56.18 124.1-107.62 124.7v-40z" style="fill:gray"/><path id="path3848" d="m-911.48-3630.5c22.88 3 46.89 4.7 71.66 4.7v40c-24.77 0-48.78-1.7-71.66-4.7v-40z" style="fill:gray"/><path id="path3850" d="m-839.82-3625.8c1.43 0 2.85 0 4.28-0.1v40c-1.43 0.1-2.85 0.1-4.28 0.1v-40z" style="fill:gray"/><path id="path3852" d="m-835.54-3625.9c1.43 0.1 2.84 0.1 4.28 0.1v40c-1.44 0-2.85 0-4.28-0.1v-40z" style="fill:gray"/><path id="path3854" d="m-831.26-3625.8c24.76 0 48.77-1.7 71.65-4.7v40c-22.88 3-46.89 4.7-71.65 4.7v-40z" style="fill:gray"/><path id="path3856" d="m-759.61-3630.5c13.61 71.8 56.18 124.1 107.6 124.7v40c-51.42-0.6-93.99-52.9-107.6-124.7v-40z" style="fill:gray"/><path id="path3858" d="m-652.01-3505.8c63.86 0.7 117.29-78.7 119.28-177.3v40c-1.99 98.6-55.42 178-119.28 177.3v-40z" style="fill:gray"/><path id="path3860" d="m-532.73-3683.1c0.2-5.2 0.31-10.3 0.31-15.2v40c0 4.9-0.11 10-0.31 15.2v-40z" style="fill:gray"/><path id="path3862" d="m-532.42-3698.3c0-193.2-153.7-204.9-298.84-216.1v40c145.14 11.2 298.84 22.9 298.84 216.1v-40z" style="fill:gray"/><path id="path3864" d="m-805.76-3914.4h-4.28v40h4.28v-40z" style="fill:gray"/><path id="path3866" d="m-810.04-3914.4h-4.28v40h4.28v-40z" style="fill:gray"/><path id="path2809" d="m-988.22-4202.4s177.24 51 200.2 128.8c17.34 58.8 0.47 109.5-8.82 130.8-3 6.9-13.58 28-13.58 28" style="opacity:.92308;filter:url(#filter3701);stroke:url(#linearGradient4323);stroke-width:8;fill:none"/><path id="path2383" d="m-839.82-3914.4c-145.39 0-265.08 56.6-279.88 129.2-12.5 29-19.4 64.2-18.7 102.1 2 98.6 55.5 178 119.3 177.3 51.44-0.6 94.01-52.9 107.62-124.7 22.88 3 46.89 4.7 71.66 4.7 1.43 0 2.85 0 4.28-0.1 1.43 0.1 2.84 0.1 4.28 0.1 24.76 0 48.77-1.7 71.65-4.7 13.61 71.8 56.18 124.1 107.6 124.7 63.86 0.7 117.29-78.7 119.28-177.3 8.2-207.8-149.67-219.8-298.53-231.3h-8.56z" style="fill:gray"/><path id="path3577" d="m-839.82-3914.4c-145.39 0-265.08 56.6-279.88 129.2-12.5 29-19.4 64.2-18.7 102.1 2 98.6 55.5 178 119.3 177.3 51.44-0.6 94.01-52.9 107.62-124.7 22.88 3 46.89 4.7 71.66 4.7 1.43 0 2.85 0 4.28-0.1 1.43 0.1 2.84 0.1 4.28 0.1 24.76 0 48.77-1.7 71.65-4.7 13.61 71.8 56.18 124.1 107.6 124.7 63.86 0.7 117.29-78.7 119.28-177.3 8.2-207.8-149.67-219.8-298.53-231.3h-8.56z" style="fill:gray"/><path id="path3297" d="m-839.82-3914.4c-145.39 0-265.08 56.6-279.88 129.2-12.5 29-19.4 64.2-18.7 102.1 2 98.6 55.5 178 119.3 177.3 51.44-0.6 94.01-52.9 107.62-124.7 22.88 3 46.89 4.7 71.66 4.7 1.43 0 2.85 0 4.28-0.1 1.43 0.1 2.84 0.1 4.28 0.1 24.76 0 48.77-1.7 71.65-4.7 13.61 71.8 56.18 124.1 107.6 124.7 63.86 0.7 117.29-78.7 119.28-177.3 0.76-37.9-6.19-73.1-18.66-102.1-14.76-72.6-134.49-129.2-279.87-129.2h-8.56z" style="stroke:#5b5b5b;stroke-width:22;fill:gray"/><g id="g2787" transform="matrix(.46253 0 0 .46253 -133.33 -1744.4)"><g id="g2655" transform="matrix(.99997 -.0078237 .0078237 .99997 -317.88 -61.812)"><g id="g2657" style="fill:#000"><path id="path2659" d="m-1178.5-4169.4-29.2-17.1 1.5 39.9 29.1 17.2-1.4-40z"/><path id="path2661" d="m-1207.7-4186.5-29.2-17.2 1.5 40 29.2 17.1-1.5-39.9z"/><path id="path2663" d="m-1236.9-4203.7 29.5-16.7 1.5 40-29.5 16.7-1.5-40z"/><path id="path2665" d="m-1207.4-4220.4 29.4-16.7 1.5 40-29.4 16.7-1.5-40z"/><path id="path2667" d="m-1178-4237.1-0.2 33.9 1.4 40 0.3-33.9-1.5-40z"/><path id="path2669" d="m-1178.2-4203.2-0.3 33.8 1.4 40 0.3-33.8-1.4-40z"/></g><path id="path2558" d="m-1178.5-4169.4-29.2-17.1-29.2-17.2 29.5-16.7 29.4-16.7-0.2 33.9-0.3 33.8z" style="fill:#000"/></g><g id="g2769" transform="matrix(-.99997 -.0078237 -.0078237 .99997 -2682.3 -61.812)"><g id="g2771" style="fill:#000"><path id="path2773" d="m-1178.5-4169.4-29.2-17.1 1.5 39.9 29.1 17.2-1.4-40z"/><path id="path2775" d="m-1207.7-4186.5-29.2-17.2 1.5 40 29.2 17.1-1.5-39.9z"/><path id="path2777" d="m-1236.9-4203.7 29.5-16.7 1.5 40-29.5 16.7-1.5-40z"/><path id="path2779" d="m-1207.4-4220.4 29.4-16.7 1.5 40-29.4 16.7-1.5-40z"/><path id="path2781" d="m-1178-4237.1-0.2 33.9 1.4 40 0.3-33.9-1.5-40z"/><path id="path2783" d="m-1178.2-4203.2-0.3 33.8 1.4 40 0.3-33.8-1.4-40z"/></g><path id="path2785" d="m-1178.5-4169.4-29.2-17.1-29.2-17.2 29.5-16.7 29.4-16.7-0.2 33.9-0.3 33.8z" style="fill:#000"/></g></g><text id="text2554" x="-919.31" y="-3813.42" xml:space="preserve" style="font-size:29.104px;font-family:Bitstream Vera Sans;fill:#000"><tspan id="tspan2556" x="-919.31" y="-3813.42">Preto Jackson</tspan></text><path id="path3352" d="m-205.82-3470.4c0 72.662-58.904 131.57-131.57 131.57-72.662 0-131.57-58.904-131.57-131.57 0-72.662 58.904-131.57 131.57-131.57 72.662 0 131.57 58.904 131.57 131.57z" transform="matrix(.71461 0 0 .71461 -768.45 -1253.6)" style="stroke:#5b5b5b;stroke-width:1.6;fill:url(#radialGradient4325)"/><path id="path2473" d="m-554.21-3411.8c0 72.138-58.479 130.62-130.62 130.62-72.138 0-130.62-58.48-130.62-130.62 0-72.138 58.479-130.62 130.62-130.62 72.138 0 130.62 58.48 130.62 130.62z" transform="matrix(.63551 0 0 .63551 -574.44 -1565.2)" style="fill:#333"/><path id="path2441" d="m-554.21-3411.8c0 72.138-58.479 130.62-130.62 130.62-72.138 0-130.62-58.48-130.62-130.62 0-72.138 58.479-130.62 130.62-130.62 72.138 0 130.62 58.48 130.62 130.62z" transform="matrix(.5812 0 0 .5812 -611.64 -1750.5)" style="fill:#666"/><path id="path2409" d="m-707.23-3572.4-29.914-31.446-29.914-31.446 42.19-10.184 42.19-10.184-12.276 41.629z" transform="matrix(.30083 .28182 -.28182 .30083 -1776.2 -2439.6)" style="fill:#ececec"/><path id="path2411" d="m-707.23-3572.4-29.914-31.446-29.914-31.446 42.19-10.184 42.19-10.184-12.276 41.629z" transform="matrix(-.30083 .28182 .28182 .30083 -243.14 -2440.7)" style="fill:#ececec"/><path id="path2413" d="m-707.23-3572.4-29.914-31.446-29.914-31.446 42.19-10.184 42.19-10.184-12.276 41.629z" transform="matrix(-.28182 -.30083 -.30083 .28182 -2300.2 -2966)" style="fill:#ececec"/><path id="path2423" d="m-707.23-3572.4-29.914-31.446-29.914-31.446 42.19-10.184 42.19-10.184-12.276 41.629z" transform="matrix(-.28182 .30083 -.30083 -.28182 -2300.2 -4501)" style="fill:#ececec"/><path id="path2445" d="m-600.6-3450.9c0 36.406-28.42 65.919-63.478 65.919s-63.478-29.513-63.478-65.919 28.42-65.919 63.478-65.919 63.478 29.513 63.478 65.919z" transform="matrix(.55312 .48807 -.27416 .3107 -1558.7 -2369.4)" style="fill:url(#linearGradient4327)"/><path id="path3317" d="m-581.56-3991.8c0 34.959-28.34 63.3-63.299 63.3s-63.299-28.34-63.299-63.3c0-34.959 28.34-63.3 63.299-63.3s63.299 28.34 63.299 63.3z" transform="matrix(.61487 0 0 .61487 -342.22 -1284.9)" style="stroke:#5b5b5b;stroke-width:1.6;fill:url(#radialGradient4329)"/><path id="path3335" d="m-581.56-3991.8c0 34.959-28.34 63.3-63.299 63.3s-63.299-28.34-63.299-63.3c0-34.959 28.34-63.3 63.299-63.3s63.299 28.34 63.299 63.3z" transform="matrix(.61487 0 0 .61487 -272.09 -1341.8)" style="stroke:#5b5b5b;stroke-width:1.6;fill:url(#radialGradient4329)"/><path id="path3339" d="m-581.56-3991.8c0 34.959-28.34 63.3-63.299 63.3s-63.299-28.34-63.299-63.3c0-34.959 28.34-63.3 63.299-63.3s63.299 28.34 63.299 63.3z" transform="matrix(.61487 0 0 .61487 -201.96 -1283.9)" style="stroke:#5b5b5b;stroke-width:1.6;fill:url(#radialGradient4329)"/><path id="path3343" d="m-581.56-3991.8c0 34.959-28.34 63.3-63.299 63.3s-63.299-28.34-63.299-63.3c0-34.959 28.34-63.3 63.299-63.3s63.299 28.34 63.299 63.3z" transform="matrix(.61487 0 0 .61487 -272.09 -1228.1)" style="stroke:#5b5b5b;stroke-width:1.6;fill:url(#radialGradient4329)"/><path id="path2485" d="m-468.81-3233.2c0 13.995-11.346 25.341-25.341 25.341s-25.341-11.346-25.341-25.341 11.346-25.341 25.341-25.341 25.341 11.346 25.341 25.341z" transform="matrix(1.2821,0,0,1.2821,-35.209,349.2)" style="fill:#ef2929"/><path id="path2487" d="m-468.81-3233.2c0 13.995-11.346 25.341-25.341 25.341s-25.341-11.346-25.341-25.341 11.346-25.341 25.341-25.341 25.341 11.346 25.341 25.341z" transform="matrix(1.2821,0,0,1.2821,-35.209,462.91)" style="fill:#4e9a06"/><path id="path2489" d="m-468.81-3233.2c0 13.995-11.346 25.341-25.341 25.341s-25.341-11.346-25.341-25.341 11.346-25.341 25.341-25.341 25.341 11.346 25.341 25.341z" transform="matrix(1.2821,0,0,1.2821,34.77,406.68)" style="fill:#3465a4"/><path id="path2491" d="m-468.81-3233.2c0 13.995-11.346 25.341-25.341 25.341s-25.341-11.346-25.341-25.341 11.346-25.341 25.341-25.341 25.341 11.346 25.341 25.341z" transform="matrix(1.2821,0,0,1.2821,-105.19,406.68)" style="fill:#75507b"/><path id="path2493" d="m-469.62-3241.9c0 5.1178-7.006 9.2666-15.648 9.2666-8.6423 0-15.648-4.1488-15.648-9.2666s7.006-9.2666 15.648-9.2666c8.6423 0 15.648 4.1488 15.648 9.2666z" transform="matrix(.98516 .86906 -.88552 .96686 -3048.9 -251.64)" style="fill:url(#linearGradient4337)"/><path id="path3273" d="m-469.62-3241.9c0 5.1178-7.006 9.2666-15.648 9.2666-8.6423 0-15.648-4.1488-15.648-9.2666s7.006-9.2666 15.648-9.2666c8.6423 0 15.648 4.1488 15.648 9.2666z" transform="matrix(.98516 .86906 -.88552 .96686 -3119.8 -194.25)" style="fill:url(#linearGradient4337)"/><path id="path3277" d="m-469.62-3241.9c0 5.1178-7.006 9.2666-15.648 9.2666-8.6423 0-15.648-4.1488-15.648-9.2666s7.006-9.2666 15.648-9.2666c8.6423 0 15.648 4.1488 15.648 9.2666z" transform="matrix(.98516 .86906 -.88552 .96686 -3050.7 -138.65)" style="fill:url(#linearGradient4337)"/><path id="path3281" d="m-469.62-3241.9c0 5.1178-7.006 9.2666-15.648 9.2666-8.6423 0-15.648-4.1488-15.648-9.2666s7.006-9.2666 15.648-9.2666c8.6423 0 15.648 4.1488 15.648 9.2666z" transform="matrix(.98516 .86906 -.88552 .96686 -2979.9 -194.25)" style="fill:url(#linearGradient4337)"/><path id="path3307" d="m-84.281-3558.2c-71.114 0.0002-135.78 13.932-183.72 36.219-47.98 22.305-77.831 52.158-84.125 83.094a9.3636 9.3636 0 0 0 0 0.031c-0.16608 0.8217-0.42065 1.6042-0.75 2.375h0.0313c-11.71 27.284-18.419 60.826-17.688 97.062 0.56935 28.199 5.6135 54.614 13.812 77.688a9.3636 9.3636 0 0 0 9.5938 6.2188c20.785-1.7467 42.172-10.358 64.062-29.469 127.4-111.22 268.38-127.96 417.56-77.562 22.041 7.4465 44.651 8.1462 67.25 4a9.3636 9.3636 0 0 0 7.625 -10.062c-2.2894-24.989-8.0441-48.1-16.531-67.875h0.0313c-0.32928-0.7706-0.5839-1.5533-0.75-2.375a9.3636 9.3636 0 0 0 0 -0.031c-6.2943-30.936-36.145-60.789-84.125-83.094-47.941-22.287-112.6-36.219-183.72-36.219-1.3293 0.0002-2.7009 0.02-4.1875 0.031-0.05623 0.0004-0.13127 0.0004-0.1875 0-1.4859-0.011-2.8586-0.031-4.1875-0.031z" transform="translate(-755.53,-343.9)" style="fill:url(#linearGradient4345)"/></g></g><rect id="rect2488" width="654.51" height="789.27" x="38.501" y="60.966" ry="24.67" style="opacity:0;stroke-width:8"/></g><metadata id="metadata93"/></svg>